<svg width="699.4px" height="121.4px" xmlns="http://www.w3.org/2000/svg" viewBox="-99.703125 14.300000000000004 699.40625 121.39999999999999" style="background: rgb(250, 250, 250)" preserveAspectRatio="xMidYMid"><defs><linearGradient id="editing-gradient-gradient" x1="0" x2="1" y1="0.5" y2="0.5" gradientUnits="objectBoundingBox"><stop offset="0" stop-color="rgba(9%, 49%, 22%, 0.74)"></stop><stop offset="1" stop-color="#a58e9c"></stop></linearGradient></defs><g><g transform="matrix(1.2,0,0,1.6,-47.8,188.2)"><path d="M 40.7 -87.2 L 40.7 -87.2 L 40.7 -87.2 Q 41.7 -89.2 41.7 -90.9 L 41.7 -90.9 L 41.7 -90.9 Q 41.7 -92.7 41.5 -93.7 L 41.5 -93.7 L 41.5 -93.7 Q 41.3 -94.7 40.9 -95.5 L 40.9 -95.5 L 40.9 -95.5 Q 39.9 -97.2 38 -97.2 L 38 -97.2 L 38 -97.2 Q 35.6 -97.2 33.7 -95.4 L 33.7 -95.4 L 33.7 -95.4 Q 31.7 -93.6 31.7 -90.8 L 31.7 -90.8 L 31.7 -90.8 Q 31.7 -89 32.9 -87.6 L 32.9 -87.6 L 32.9 -87.6 Q 34.2 -86.3 36.1 -85 L 36.1 -85 L 36.1 -85 Q 38 -83.7 40.2 -82.4 L 40.2 -82.4 L 40.2 -82.4 Q 42.3 -81.2 44.3 -79.6 L 44.3 -79.6 L 44.3 -79.6 Q 48.7 -76.1 48.7 -71.4 L 48.7 -71.4 L 48.7 -71.4 Q 48.7 -68.2 47 -65.4 L 47 -65.4 L 47 -65.4 Q 45.3 -62.7 42.5 -60.7 L 42.5 -60.7 L 42.5 -60.7 Q 36.3 -56.4 28.2 -56.4 L 28.2 -56.4 L 28.2 -56.4 Q 21.6 -56.4 18.2 -58.5 L 18.2 -58.5 L 18.2 -58.5 Q 14.8 -60.7 14.8 -63.9 L 14.8 -63.9 L 14.8 -63.9 Q 14.8 -69.8 19.4 -71.2 L 19.4 -71.2 L 19.4 -71.2 Q 20.6 -71.7 22.6 -71.7 L 22.6 -71.7 L 22.6 -71.7 Q 24.6 -71.7 26.8 -70.8 L 26.8 -70.8 L 26.8 -70.8 Q 25.8 -68.2 25.8 -65.9 L 25.8 -65.9 L 25.8 -65.9 Q 25.8 -60.7 29.4 -60.7 L 29.4 -60.7 L 29.4 -60.7 Q 31.8 -60.7 33.7 -62.5 L 33.7 -62.5 L 33.7 -62.5 Q 35.7 -64.2 35.7 -66.1 L 35.7 -66.1 L 35.7 -66.1 Q 35.7 -68.1 34.4 -69.5 L 34.4 -69.5 L 34.4 -69.5 Q 33.2 -70.9 31.3 -72 L 31.3 -72 L 31.3 -72 Q 29.5 -73.2 27.3 -74.2 L 27.3 -74.2 L 27.3 -74.2 Q 25.2 -75.3 23.3 -76.9 L 23.3 -76.9 L 23.3 -76.9 Q 19 -80.4 19 -86 L 19 -86 L 19 -86 Q 19 -89.7 20.8 -92.5 L 20.8 -92.5 L 20.8 -92.5 Q 22.6 -95.4 25.4 -97.3 L 25.4 -97.3 L 25.4 -97.3 Q 31.2 -101.2 38.3 -101.2 L 38.3 -101.2 L 38.3 -101.2 Q 45.4 -101.2 48.8 -99.1 L 48.8 -99.1 L 48.8 -99.1 Q 52.2 -97 52.2 -93.4 L 52.2 -93.4 L 52.2 -93.4 Q 52.2 -90.2 49.8 -88.3 L 49.8 -88.3 L 49.8 -88.3 Q 47.7 -86.6 45.1 -86.6 L 45.1 -86.6 L 45.1 -86.6 Q 42.5 -86.6 40.7 -87.2 Z M 73.9 -64.9 L 73.9 -64.9 L 73.9 -64.9 Q 70.6 -61.4 64.5 -61.4 L 64.5 -61.4 L 64.5 -61.4 Q 56.9 -61.4 55.3 -67 L 55.3 -67 L 55.3 -67 Q 54.8 -68.7 54.8 -70.5 L 54.8 -70.5 L 54.8 -70.5 Q 54.8 -72.4 55.1 -74.3 L 55.1 -74.3 L 58.2 -90.3 L 71.1 -91.6 L 67.6 -73 L 67.6 -73 Q 67.5 -72.1 67.3 -71.2 L 67.3 -71.2 L 67.3 -71.2 Q 67.1 -70.3 67.1 -69.4 L 67.1 -69.4 L 67.1 -69.4 Q 67.1 -68.5 67.4 -67.9 L 67.4 -67.9 L 67.4 -67.9 Q 67.8 -67.3 68.2 -66.9 L 68.2 -66.9 L 68.2 -66.9 Q 69 -66.4 70.3 -66.4 L 70.3 -66.4 L 70.3 -66.4 Q 71.7 -66.4 72.9 -68 L 72.9 -68 L 72.9 -68 Q 74.1 -69.7 74.7 -72.6 L 74.7 -72.6 L 78.2 -90.3 L 90.8 -91.6 L 86 -66.4 L 86 -66.4 Q 83.6 -54.1 78.8 -49.3 L 78.8 -49.3 L 78.8 -49.3 Q 76.3 -46.8 73 -45.8 L 73 -45.8 L 73 -45.8 Q 69.8 -44.8 65.6 -44.8 L 65.6 -44.8 L 65.6 -44.8 Q 58.9 -44.8 55.1 -46.9 L 55.1 -46.9 L 55.1 -46.9 Q 51.2 -49 51.2 -52.5 L 51.2 -52.5 L 51.2 -52.5 Q 51.2 -55.2 53.2 -56.7 L 53.2 -56.7 L 53.2 -56.7 Q 55.2 -58.2 58.3 -58.2 L 58.3 -58.2 L 58.3 -58.2 Q 61 -58.2 63 -57 L 63 -57 L 63 -57 Q 64.2 -56.3 64.8 -55.4 L 64.8 -55.4 L 64.8 -55.4 Q 63.3 -54.1 63.3 -52 L 63.3 -52 L 63.3 -52 Q 63.3 -49.2 65.9 -49.2 L 65.9 -49.2 L 65.9 -49.2 Q 70.1 -49.2 72.6 -58.9 L 72.6 -58.9 L 72.6 -58.9 Q 73.3 -61.8 73.9 -64.9 Z M 113.1 -75.6 L 113.1 -75.6 L 113.1 -75.6 Q 115.4 -79.7 115.4 -83.9 L 115.4 -83.9 L 115.4 -83.9 Q 115.4 -86.7 113.4 -86.7 L 113.4 -86.7 L 113.4 -86.7 Q 111.9 -86.7 110.3 -84 L 110.3 -84 L 110.3 -84 Q 108.6 -81.4 108.1 -78 L 108.1 -78 L 104.8 -57.7 L 91.6 -56.4 L 98.1 -90.3 L 108.6 -91.6 L 107.5 -85.1 L 107.5 -85.1 Q 110.6 -91.6 117.7 -91.6 L 117.7 -91.6 L 117.7 -91.6 Q 121.4 -91.6 123.4 -89.7 L 123.4 -89.7 L 123.4 -89.7 Q 125.4 -87.7 125.4 -83.8 L 125.4 -83.8 L 125.4 -83.8 Q 125.4 -79.9 122.8 -77.4 L 122.8 -77.4 L 122.8 -77.4 Q 120.2 -74.9 115.8 -74.9 L 115.8 -74.9 L 115.8 -74.9 Q 113.9 -74.9 113.1 -75.6 Z M 141.8 -61.2 L 141.8 -61.2 L 141.8 -61.2 Q 139.8 -56.4 133.5 -56.4 L 133.5 -56.4 L 133.5 -56.4 Q 130.2 -56.4 128.2 -58.6 L 128.2 -58.6 L 128.2 -58.6 Q 126.4 -60.6 126.4 -62.6 L 126.4 -62.6 L 126.4 -62.6 Q 126.4 -67.8 128.8 -77.9 L 128.8 -77.9 L 131.2 -90.3 L 144.2 -91.6 L 140.3 -71.4 L 140.3 -71.4 Q 139.2 -66.6 139.2 -65 L 139.2 -65 L 139.2 -65 Q 139.2 -61.3 141.8 -61.2 Z M 132.3 -99.2 L 132.3 -99.2 L 132.3 -99.2 Q 132.3 -101.7 134.4 -103 L 134.4 -103 L 134.4 -103 Q 136.5 -104.4 139.5 -104.4 L 139.5 -104.4 L 139.5 -104.4 Q 142.5 -104.4 144.3 -103 L 144.3 -103 L 144.3 -103 Q 146.2 -101.7 146.2 -99.2 L 146.2 -99.2 L 146.2 -99.2 Q 146.2 -96.7 144.1 -95.4 L 144.1 -95.4 L 144.1 -95.4 Q 142.1 -94.1 139.1 -94.1 L 139.1 -94.1 L 139.1 -94.1 Q 136.1 -94.1 134.2 -95.4 L 134.2 -95.4 L 134.2 -95.4 Q 132.3 -96.7 132.3 -99.2 Z M 150 -59.6 L 150 -59.6 L 150 -59.6 Q 148.5 -61.2 147.8 -63.9 L 147.8 -63.9 L 147.8 -63.9 Q 147.2 -66.5 147.2 -70.8 L 147.2 -70.8 L 147.2 -70.8 Q 147.2 -75.1 148.6 -79 L 148.6 -79 L 148.6 -79 Q 150.1 -82.9 152.8 -85.7 L 152.8 -85.7 L 152.8 -85.7 Q 158.3 -91.6 167.4 -91.6 L 167.4 -91.6 L 167.4 -91.6 Q 170.7 -91.6 173 -90.5 L 173 -90.5 L 184 -91.6 L 179.2 -66.6 L 179.2 -66.6 Q 179 -65.9 179 -64.4 L 179 -64.4 L 179 -64.4 Q 179 -63 179.9 -62.1 L 179.9 -62.1 L 179.9 -62.1 Q 180.8 -61.2 182.1 -61.1 L 182.1 -61.1 L 182.1 -61.1 Q 181.4 -58.9 179.1 -57.7 L 179.1 -57.7 L 179.1 -57.7 Q 176.7 -56.4 174.1 -56.4 L 174.1 -56.4 L 174.1 -56.4 Q 171.5 -56.4 169.7 -57.4 L 169.7 -57.4 L 169.7 -57.4 Q 168 -58.4 167.5 -60 L 167.5 -60 L 167.5 -60 Q 166.4 -58.4 164.3 -57.4 L 164.3 -57.4 L 164.3 -57.4 Q 162.1 -56.4 159.2 -56.4 L 159.2 -56.4 L 159.2 -56.4 Q 156.3 -56.4 153.9 -57.2 L 153.9 -57.2 L 153.9 -57.2 Q 151.5 -57.9 150 -59.6 Z M 163.5 -85.6 L 163.5 -85.6 L 163.5 -85.6 Q 162.8 -84.4 162.2 -82.5 L 162.2 -82.5 L 162.2 -82.5 Q 161.5 -80.5 160.5 -75.3 L 160.5 -75.3 L 160.5 -75.3 Q 159.4 -70.1 159.4 -66.4 L 159.4 -66.4 L 159.4 -66.4 Q 159.4 -62.7 160 -61.6 L 160 -61.6 L 160 -61.6 Q 160.6 -60.5 161.6 -60.5 L 161.6 -60.5 L 161.6 -60.5 Q 163.6 -60.5 165.1 -62.4 L 165.1 -62.4 L 165.1 -62.4 Q 166.6 -64.4 167.2 -67.8 L 167.2 -67.8 L 170.6 -86.6 L 170.6 -86.6 Q 169.3 -87.7 167.7 -87.7 L 167.7 -87.7 L 167.7 -87.7 Q 166.1 -87.7 165.2 -87.2 L 165.2 -87.2 L 165.2 -87.2 Q 164.3 -86.7 163.5 -85.6 Z M 214.5 -56.4 L 214.5 -56.4 L 214.5 -56.4 Q 206.8 -56.4 206.8 -62.4 L 206.8 -62.4 L 206.8 -62.4 Q 206.8 -64.1 207.3 -66.9 L 207.3 -66.9 L 208.5 -72.8 L 208.5 -72.8 Q 210.2 -81.1 210.2 -82.9 L 210.2 -82.9 L 210.2 -82.9 Q 210.2 -86.7 208 -86.7 L 208 -86.7 L 208 -86.7 Q 204.4 -86.7 202.5 -77.1 L 202.5 -77.1 L 198.7 -57.7 L 185.8 -56.4 L 192.5 -90.4 L 203 -91.6 L 202 -85.3 L 202 -85.3 Q 205 -91.6 214.2 -91.6 L 214.2 -91.6 L 214.2 -91.6 Q 218.7 -91.6 220.6 -89.7 L 220.6 -89.7 L 220.6 -89.7 Q 222.4 -87.8 222.4 -83.6 L 222.4 -83.6 L 222.4 -83.6 Q 222.4 -79.6 220.4 -70.3 L 220.4 -70.3 L 220.4 -70.3 Q 219.4 -66.2 219.4 -64.6 L 219.4 -64.6 L 219.4 -64.6 Q 219.4 -63 220.3 -62.1 L 220.3 -62.1 L 220.3 -62.1 Q 221.2 -61.2 222.4 -61.1 L 222.4 -61.1 L 222.4 -61.1 Q 221.8 -58.9 219.6 -57.7 L 219.6 -57.7 L 219.6 -57.7 Q 217.4 -56.4 214.5 -56.4 Z M 268.1 -67.5 L 268.1 -67.5 L 268.1 -67.5 Q 269.3 -66 269.3 -63.5 L 269.3 -63.5 L 269.3 -63.5 Q 269.3 -60 266.7 -58.2 L 266.7 -58.2 L 266.7 -58.2 Q 264.2 -56.4 260.1 -56.4 L 260.1 -56.4 L 260.1 -56.4 Q 257.8 -56.4 254.3 -56.9 L 254.3 -56.9 L 254.3 -56.9 Q 247.4 -58 245.3 -58 L 245.3 -58 L 245.3 -58 Q 243.2 -58 242.3 -57.9 L 242.3 -57.9 L 242.3 -57.9 Q 241.5 -57.8 240.2 -57.7 L 240.2 -57.7 L 248 -99.9 L 275.6 -99.9 L 275.6 -99.9 Q 275.6 -96 273.7 -94 L 273.7 -94 L 273.7 -94 Q 271.8 -91.9 268.1 -91.9 L 268.1 -91.9 L 268.1 -91.9 Q 264.4 -91.9 260.6 -93.6 L 260.6 -93.6 L 258.7 -82.4 L 270.1 -82.4 L 270.1 -82.4 Q 270.1 -79 268.4 -77.2 L 268.4 -77.2 L 268.4 -77.2 Q 266.7 -75.3 263.9 -75.3 L 263.9 -75.3 L 263.9 -75.3 Q 261.2 -75.3 259.4 -75.9 L 259.4 -75.9 L 259.4 -75.9 Q 257.7 -76.5 257.5 -76.7 L 257.5 -76.7 L 255.2 -64.6 L 255.2 -64.6 Q 256.7 -64.4 259.6 -64.4 L 259.6 -64.4 L 259.6 -64.4 Q 264.6 -64.4 268.1 -67.5 Z M 321.3 -56.4 L 321.3 -56.4 L 321.3 -56.4 Q 313.5 -56.4 313.5 -62.4 L 313.5 -62.4 L 313.5 -62.4 Q 313.5 -65 314.6 -70.1 L 314.6 -70.1 L 314.6 -70.1 Q 315.8 -75.2 316.1 -77.2 L 316.1 -77.2 L 316.1 -77.2 Q 317 -81.9 317 -83.4 L 317 -83.4 L 317 -83.4 Q 317 -86.7 314.6 -86.7 L 314.6 -86.7 L 314.6 -86.7 Q 313 -86.7 311.5 -84.4 L 311.5 -84.4 L 311.5 -84.4 Q 309.9 -82.2 309.2 -77.8 L 309.2 -77.8 L 305.3 -57.7 L 292.8 -56.4 L 296.2 -73.8 L 296.2 -73.8 Q 296.8 -76.7 297.3 -79.9 L 297.3 -79.9 L 297.3 -79.9 Q 297.8 -83.2 297.8 -83.7 L 297.8 -83.7 L 297.8 -83.7 Q 297.8 -86.7 295.7 -86.7 L 295.7 -86.7 L 295.7 -86.7 Q 294.2 -86.7 292.6 -84.5 L 292.6 -84.5 L 292.6 -84.5 Q 291 -82.3 290.1 -77.8 L 290.1 -77.8 L 286.2 -57.7 L 273.6 -56.4 L 280.3 -90.3 L 290.7 -91.6 L 289.6 -85.1 L 289.6 -85.1 Q 291.3 -88.6 294.4 -90.1 L 294.4 -90.1 L 294.4 -90.1 Q 297.4 -91.6 302.2 -91.6 L 302.2 -91.6 L 302.2 -91.6 Q 305 -91.6 306.8 -90.2 L 306.8 -90.2 L 306.8 -90.2 Q 308.6 -88.9 309.2 -86.7 L 309.2 -86.7 L 309.2 -86.7 Q 310.2 -89 313 -90.3 L 313 -90.3 L 313 -90.3 Q 315.8 -91.6 319.2 -91.6 L 319.2 -91.6 L 319.2 -91.6 Q 322.7 -91.6 324.4 -90.8 L 324.4 -90.8 L 324.4 -90.8 Q 326.1 -90.1 327.1 -88.9 L 327.1 -88.9 L 327.1 -88.9 Q 328.8 -86.7 328.8 -82.6 L 328.8 -82.6 L 328.8 -82.6 Q 328.8 -78.5 327.1 -70.1 L 327.1 -70.1 L 327.1 -70.1 Q 326.2 -66 326.2 -64.5 L 326.2 -64.5 L 326.2 -64.5 Q 326.2 -63 327 -62.1 L 327 -62.1 L 327 -62.1 Q 327.9 -61.2 329.2 -61.1 L 329.2 -61.1 L 329.2 -61.1 Q 328.6 -58.9 326.3 -57.7 L 326.3 -57.7 L 326.3 -57.7 Q 324.1 -56.4 321.3 -56.4 Z M 333.3 -60.7 L 333.3 -60.7 L 341.2 -102.5 L 354.2 -103.7 L 352.2 -94 L 352.2 -94 Q 351.5 -90.9 350.6 -88.8 L 350.6 -88.8 L 350.6 -88.8 Q 352 -90.6 355.1 -91.3 L 355.1 -91.3 L 355.1 -91.3 Q 356 -91.6 357.1 -91.6 L 357.1 -91.6 L 357.1 -91.6 Q 363 -91.6 366.3 -88 L 366.3 -88 L 366.3 -88 Q 369.6 -84.4 369.6 -77.4 L 369.6 -77.4 L 369.6 -77.4 Q 369.6 -68.3 364.4 -62.6 L 364.4 -62.6 L 364.4 -62.6 Q 358.8 -56.4 348.7 -56.4 L 348.7 -56.4 L 348.7 -56.4 Q 341.7 -56.4 336.5 -58.7 L 336.5 -58.7 L 336.5 -58.7 Q 334.6 -59.5 333.3 -60.7 Z M 349.5 -80.1 L 346.2 -61.3 L 346.2 -61.3 Q 347.5 -60.2 349.2 -60.2 L 349.2 -60.2 L 349.2 -60.2 Q 350.8 -60.2 351.8 -60.8 L 351.8 -60.8 L 351.8 -60.8 Q 352.7 -61.4 353.4 -62.7 L 353.4 -62.7 L 353.4 -62.7 Q 355.4 -66.2 356.9 -76.7 L 356.9 -76.7 L 356.9 -76.7 Q 357.4 -79.7 357.4 -82.8 L 357.4 -82.8 L 357.4 -82.8 Q 357.4 -85.8 356.7 -86.7 L 356.7 -86.7 L 356.7 -86.7 Q 356 -87.7 354.7 -87.7 L 354.7 -87.7 L 354.7 -87.7 Q 350.8 -87.7 349.5 -80.1 L 349.5 -80.1 Z M 376.2 -59.6 L 376.2 -59.6 L 376.2 -59.6 Q 374.7 -61.2 374 -63.9 L 374 -63.9 L 374 -63.9 Q 373.4 -66.5 373.4 -70.8 L 373.4 -70.8 L 373.4 -70.8 Q 373.4 -75.1 374.8 -79 L 374.8 -79 L 374.8 -79 Q 376.3 -82.9 379 -85.7 L 379 -85.7 L 379 -85.7 Q 384.5 -91.6 393.6 -91.6 L 393.6 -91.6 L 393.6 -91.6 Q 396.8 -91.6 399.2 -90.5 L 399.2 -90.5 L 410.2 -91.6 L 405.4 -66.6 L 405.4 -66.6 Q 405.2 -65.9 405.2 -64.4 L 405.2 -64.4 L 405.2 -64.4 Q 405.2 -63 406.1 -62.1 L 406.1 -62.1 L 406.1 -62.1 Q 407 -61.2 408.2 -61.1 L 408.2 -61.1 L 408.2 -61.1 Q 407.6 -58.9 405.3 -57.7 L 405.3 -57.7 L 405.3 -57.7 Q 402.9 -56.4 400.3 -56.4 L 400.3 -56.4 L 400.3 -56.4 Q 397.7 -56.4 395.9 -57.4 L 395.9 -57.4 L 395.9 -57.4 Q 394.2 -58.4 393.6 -60 L 393.6 -60 L 393.6 -60 Q 392.6 -58.4 390.4 -57.4 L 390.4 -57.4 L 390.4 -57.4 Q 388.3 -56.4 385.4 -56.4 L 385.4 -56.4 L 385.4 -56.4 Q 382.4 -56.4 380.1 -57.2 L 380.1 -57.2 L 380.1 -57.2 Q 377.7 -57.9 376.2 -59.6 Z M 389.7 -85.6 L 389.7 -85.6 L 389.7 -85.6 Q 389 -84.4 388.3 -82.5 L 388.3 -82.5 L 388.3 -82.5 Q 387.7 -80.5 386.6 -75.3 L 386.6 -75.3 L 386.6 -75.3 Q 385.6 -70.1 385.6 -66.4 L 385.6 -66.4 L 385.6 -66.4 Q 385.6 -62.7 386.2 -61.6 L 386.2 -61.6 L 386.2 -61.6 Q 386.7 -60.5 387.8 -60.5 L 387.8 -60.5 L 387.8 -60.5 Q 389.8 -60.5 391.3 -62.4 L 391.3 -62.4 L 391.3 -62.4 Q 392.8 -64.4 393.4 -67.8 L 393.4 -67.8 L 396.8 -86.6 L 396.8 -86.6 Q 395.4 -87.7 393.9 -87.7 L 393.9 -87.7 L 393.9 -87.7 Q 392.3 -87.7 391.4 -87.2 L 391.4 -87.2 L 391.4 -87.2 Q 390.4 -86.7 389.7 -85.6 Z M 432.7 -80.1 L 432.7 -80.1 L 432.7 -80.1 Q 433.6 -82.5 433.6 -84.5 L 433.6 -84.5 L 433.6 -84.5 Q 433.6 -88.3 430.6 -88.3 L 430.6 -88.3 L 430.6 -88.3 Q 429 -88.3 427.7 -86.9 L 427.7 -86.9 L 427.7 -86.9 Q 426.3 -85.4 426.3 -83.6 L 426.3 -83.6 L 426.3 -83.6 Q 426.3 -82.4 427.4 -81.3 L 427.4 -81.3 L 427.4 -81.3 Q 428.8 -79.9 432.6 -77.6 L 432.6 -77.6 L 432.6 -77.6 Q 436.4 -75.3 437.8 -73.4 L 437.8 -73.4 L 437.8 -73.4 Q 439.3 -71.6 439.3 -69 L 439.3 -69 L 439.3 -69 Q 439.3 -66.4 438 -64 L 438 -64 L 438 -64 Q 436.8 -61.6 434.5 -60 L 434.5 -60 L 434.5 -60 Q 429.7 -56.4 422.1 -56.4 L 422.1 -56.4 L 422.1 -56.4 Q 417.9 -56.4 414.7 -58.6 L 414.7 -58.6 L 414.7 -58.6 Q 411.5 -60.7 411.5 -63.2 L 411.5 -63.2 L 411.5 -63.2 Q 411.5 -65.7 413.3 -67.1 L 413.3 -67.1 L 413.3 -67.1 Q 415.1 -68.6 417.8 -68.6 L 417.8 -68.6 L 417.8 -68.6 Q 420.5 -68.6 422.2 -67.6 L 422.2 -67.6 L 422.2 -67.6 Q 421.4 -65.5 421.4 -64.1 L 421.4 -64.1 L 421.4 -64.1 Q 421.4 -59.8 424.9 -59.8 L 424.9 -59.8 L 424.9 -59.8 Q 426.5 -59.8 427.5 -60.8 L 427.5 -60.8 L 427.5 -60.8 Q 428.5 -61.8 428.5 -63.4 L 428.5 -63.4 L 428.5 -63.4 Q 428.5 -66.7 423 -70.1 L 423 -70.1 L 423 -70.1 Q 418.5 -73.1 417.5 -74.2 L 417.5 -74.2 L 417.5 -74.2 Q 415.8 -76.3 415.8 -78.8 L 415.8 -78.8 L 415.8 -78.8 Q 415.8 -81.4 417 -83.8 L 417 -83.8 L 417 -83.8 Q 418.2 -86.3 420.5 -88 L 420.5 -88 L 420.5 -88 Q 425.1 -91.6 433.3 -91.6 L 433.3 -91.6 L 433.3 -91.6 Q 437.4 -91.6 439.9 -89.9 L 439.9 -89.9 L 439.9 -89.9 Q 442.3 -88.3 442.3 -85.4 L 442.3 -85.4 L 442.3 -85.4 Q 442.3 -82.6 440.6 -81 L 440.6 -81 L 440.6 -81 Q 439 -79.4 435.9 -79.4 L 435.9 -79.4 L 435.9 -79.4 Q 433.8 -79.4 432.7 -80.1 Z M 463.8 -80.1 L 463.8 -80.1 L 463.8 -80.1 Q 464.7 -82.5 464.7 -84.5 L 464.7 -84.5 L 464.7 -84.5 Q 464.7 -88.3 461.7 -88.3 L 461.7 -88.3 L 461.7 -88.3 Q 460.1 -88.3 458.8 -86.9 L 458.8 -86.9 L 458.8 -86.9 Q 457.4 -85.4 457.4 -83.6 L 457.4 -83.6 L 457.4 -83.6 Q 457.4 -82.4 458.5 -81.3 L 458.5 -81.3 L 458.5 -81.3 Q 459.9 -79.9 463.7 -77.6 L 463.7 -77.6 L 463.7 -77.6 Q 467.5 -75.3 468.9 -73.4 L 468.9 -73.4 L 468.9 -73.4 Q 470.4 -71.6 470.4 -69 L 470.4 -69 L 470.4 -69 Q 470.4 -66.4 469.1 -64 L 469.1 -64 L 469.1 -64 Q 467.9 -61.6 465.6 -60 L 465.6 -60 L 465.6 -60 Q 460.8 -56.4 453.2 -56.4 L 453.2 -56.4 L 453.2 -56.4 Q 449 -56.4 445.8 -58.6 L 445.8 -58.6 L 445.8 -58.6 Q 442.6 -60.7 442.6 -63.2 L 442.6 -63.2 L 442.6 -63.2 Q 442.6 -65.7 444.4 -67.1 L 444.4 -67.1 L 444.4 -67.1 Q 446.2 -68.6 448.9 -68.6 L 448.9 -68.6 L 448.9 -68.6 Q 451.6 -68.6 453.3 -67.6 L 453.3 -67.6 L 453.3 -67.6 Q 452.5 -65.5 452.5 -64.1 L 452.5 -64.1 L 452.5 -64.1 Q 452.5 -59.8 456 -59.8 L 456 -59.8 L 456 -59.8 Q 457.6 -59.8 458.6 -60.8 L 458.6 -60.8 L 458.6 -60.8 Q 459.6 -61.8 459.6 -63.4 L 459.6 -63.4 L 459.6 -63.4 Q 459.6 -66.7 454.1 -70.1 L 454.1 -70.1 L 454.1 -70.1 Q 449.6 -73.1 448.6 -74.2 L 448.6 -74.2 L 448.6 -74.2 Q 446.9 -76.3 446.9 -78.8 L 446.9 -78.8 L 446.9 -78.8 Q 446.9 -81.4 448.1 -83.8 L 448.1 -83.8 L 448.1 -83.8 Q 449.3 -86.3 451.6 -88 L 451.6 -88 L 451.6 -88 Q 456.2 -91.6 464.4 -91.6 L 464.4 -91.6 L 464.4 -91.6 Q 468.5 -91.6 471 -89.9 L 471 -89.9 L 471 -89.9 Q 473.4 -88.3 473.4 -85.4 L 473.4 -85.4 L 473.4 -85.4 Q 473.4 -82.6 471.8 -81 L 471.8 -81 L 471.8 -81 Q 470.1 -79.4 467 -79.4 L 467 -79.4 L 467 -79.4 Q 464.9 -79.4 463.8 -80.1 Z M 496.2 -64.9 L 496.2 -64.9 L 496.2 -64.9 Q 492.8 -61.4 486.8 -61.4 L 486.8 -61.4 L 486.8 -61.4 Q 479.1 -61.4 477.5 -67 L 477.5 -67 L 477.5 -67 Q 477 -68.7 477 -70.5 L 477 -70.5 L 477 -70.5 Q 477 -72.4 477.4 -74.3 L 477.4 -74.3 L 480.4 -90.3 L 493.4 -91.6 L 489.9 -73 L 489.9 -73 Q 489.8 -72.1 489.6 -71.2 L 489.6 -71.2 L 489.6 -71.2 Q 489.4 -70.3 489.4 -69.4 L 489.4 -69.4 L 489.4 -69.4 Q 489.4 -68.5 489.7 -67.9 L 489.7 -67.9 L 489.7 -67.9 Q 490 -67.3 490.5 -66.9 L 490.5 -66.9 L 490.5 -66.9 Q 491.2 -66.4 492.6 -66.4 L 492.6 -66.4 L 492.6 -66.4 Q 494 -66.4 495.2 -68 L 495.2 -68 L 495.2 -68 Q 496.4 -69.7 496.9 -72.6 L 496.9 -72.6 L 500.5 -90.3 L 513.1 -91.6 L 508.3 -66.4 L 508.3 -66.4 Q 505.9 -54.1 501 -49.3 L 501 -49.3 L 501 -49.3 Q 498.5 -46.8 495.3 -45.8 L 495.3 -45.8 L 495.3 -45.8 Q 492.1 -44.8 487.9 -44.8 L 487.9 -44.8 L 487.9 -44.8 Q 481.2 -44.8 477.4 -46.9 L 477.4 -46.9 L 477.4 -46.9 Q 473.5 -49 473.5 -52.5 L 473.5 -52.5 L 473.5 -52.5 Q 473.5 -55.2 475.5 -56.7 L 475.5 -56.7 L 475.5 -56.7 Q 477.5 -58.2 480.6 -58.2 L 480.6 -58.2 L 480.6 -58.2 Q 483.2 -58.2 485.3 -57 L 485.3 -57 L 485.3 -57 Q 486.5 -56.3 487.1 -55.4 L 487.1 -55.4 L 487.1 -55.4 Q 485.6 -54.1 485.6 -52 L 485.6 -52 L 485.6 -52 Q 485.6 -49.2 488.2 -49.2 L 488.2 -49.2 L 488.2 -49.2 Q 492.4 -49.2 494.8 -58.9 L 494.8 -58.9 L 494.8 -58.9 Q 495.5 -61.8 496.2 -64.9 Z" fill="url(#editing-gradient-gradient)"></path></g></g><style>text {
  font-size: 64px;
  font-family: Arial Black;
  dominant-baseline: central;
  text-anchor: middle;
}</style></svg>